<mxfile host="app.diagrams.net" modified="2024-02-25T14:44:45.897Z" agent="Mozilla/5.0 (Windows NT 10.0; Win64; x64) AppleWebKit/537.36 (KHTML, like Gecko) Chrome/122.0.0.0 Safari/537.36" version="23.1.6" etag="2spaP9H147yQuYCdLMu0" type="github">
  <diagram name="PÃ¡gina-1" id="Py4o7l-ax8GxlH6cGRlE">
    <mxGraphModel>
      <root>
        <mxCell id="0" />
        <mxCell id="1" parent="0" />
      </root>
    </mxGraphModel>
  </diagram>
</mxfile>
